<?xml version="1.0" encoding="utf-8"?>
<!-- Generator: Adobe Illustrator 19.0.0, SVG Export Plug-In . SVG Version: 6.00 Build 0)  -->
<svg version="1.1" id="Layer_1" xmlns="http://www.w3.org/2000/svg" xmlns:xlink="http://www.w3.org/1999/xlink" x="0px" y="0px"
	 viewBox="0 0 100 100" style="enable-background:new 0 0 100 100;" xml:space="preserve">
<path id="XMLID_1_" d="M85,23.3c-2.6,1.4-5.3,2.4-8.2,2.8c3-2.2,5.2-5.6,6.3-9.8c-2.8,2-5.8,3.5-9.1,4.3c-2.6-3.4-6.4-5.6-10.5-5.6
	c-9.3,0-16.1,10.6-14,21.7C37.5,36,27,28.9,19.9,18.2c-3.8,7.9-2,18.3,4.4,23.6c-2.4-0.1-4.6-0.9-6.5-2.2
	c-0.2,8.2,4.6,15.8,11.5,17.6c-2,0.7-4.2,0.8-6.5,0.3c1.8,7,7.1,12.1,13.4,12.3c-6,5.8-13.6,8.4-21.3,7.3c6.4,5,13.9,7.9,22,7.9
	c26.7,0,41.7-27.7,40.8-52.6C80.6,29.9,83.1,26.8,85,23.3z"/>
</svg>
