<?xml version="1.0" encoding="utf-8"?>
<!-- Generator: Adobe Illustrator 19.0.0, SVG Export Plug-In . SVG Version: 6.00 Build 0)  -->
<svg version="1.1" id="Layer_1" xmlns="http://www.w3.org/2000/svg" xmlns:xlink="http://www.w3.org/1999/xlink" x="0px" y="0px"
	 viewBox="0 0 100 100" style="enable-background:new 0 0 100 100;" xml:space="preserve">
<path id="XMLID_1_" d="M50,15c-19.3,0-35,16.1-35,35.9c0,15.9,10,29.3,23.9,34.1c1.7,0.3,2.3-0.8,2.3-1.7v-6.7
	c-9.7,2.2-11.8-4.2-11.8-4.2c-1.6-4.1-3.9-5.3-3.9-5.3c-3.2-2.2,0.2-2.2,0.2-2.2c3.5,0.3,5.4,3.7,5.4,3.7c3.1,5.5,8.2,3.9,10.2,3
	c0.3-2.3,1.2-3.9,2.2-4.8c-7.8-0.9-15.9-4-15.9-17.7c0-3.9,1.4-7.1,3.6-9.6c-0.4-0.9-1.6-4.6,0.3-9.5c0,0,2.9-1,9.6,3.7
	c2.8-0.8,5.8-1.2,8.8-1.2c3,0,6,0.4,8.8,1.2c6.7-4.6,9.6-3.7,9.6-3.7c1.9,4.9,0.7,8.6,0.3,9.5c2.2,2.5,3.6,5.7,3.6,9.6
	c0,13.8-8.2,16.8-16,17.7c1.3,1.1,2.4,3.3,2.4,6.6v9.8c0,1,0.6,2.1,2.3,1.7C75,80.2,85,66.7,85,50.9C85,31.1,69.3,15,50,15z"/>
</svg>
