<?xml version="1.0" encoding="utf-8"?>
<!-- Generator: Adobe Illustrator 19.0.0, SVG Export Plug-In . SVG Version: 6.00 Build 0)  -->
<svg version="1.1" id="Layer_1" xmlns="http://www.w3.org/2000/svg" xmlns:xlink="http://www.w3.org/1999/xlink" x="0px" y="0px"
	 viewBox="0 0 100 100" style="enable-background:new 0 0 100 100;" xml:space="preserve">
<g id="XMLID_1_">
	<g id="XMLID_17_">
		<path id="XMLID_6_" d="M10,36c26.7,0,53.3,0,60,0c7.7,0,7.7-12,0-12c-26.7,0-53.3,0-60,0C2.3,24,2.3,36,10,36L10,36z"/>
	</g>
</g>
<g id="XMLID_3_">
	<g id="XMLID_22_">
		<path id="XMLID_2_" d="M10,56c26.7,0,53.3,0,60,0c7.7,0,7.7-12,0-12c-26.7,0-53.3,0-60,0C2.3,44,2.3,56,10,56L10,56z"/>
	</g>
</g>
<g id="XMLID_5_">
	<g id="XMLID_27_">
		<path id="XMLID_4_" d="M10,76c26.7,0,53.3,0,60,0c7.7,0,7.7-12,0-12c-26.7,0-53.3,0-60,0C2.3,64,2.3,76,10,76L10,76z"/>
	</g>
</g>
</svg>
