<?xml version="1.0" encoding="utf-8"?>
<!-- Generator: Adobe Illustrator 19.0.0, SVG Export Plug-In . SVG Version: 6.00 Build 0)  -->
<svg version="1.1" id="Layer_1" xmlns="http://www.w3.org/2000/svg" xmlns:xlink="http://www.w3.org/1999/xlink" x="0px" y="0px"
	 viewBox="0 0 100 100" style="enable-background:new 0 0 100 100;" xml:space="preserve">
<path d="M50,21.3c9.3,0,10.5,0,14.1,0.2c9.5,0.4,13.9,4.9,14.3,14.3c0.2,3.7,0.2,4.8,0.2,14.1c0,9.3,0,10.5-0.2,14.1
	c-0.4,9.4-4.9,13.9-14.3,14.3c-3.7,0.2-4.8,0.2-14.1,0.2c-9.3,0-10.5,0-14.1-0.2c-9.5-0.4-13.9-5-14.3-14.3
	c-0.2-3.7-0.2-4.8-0.2-14.1c0-9.3,0-10.5,0.2-14.1c0.4-9.4,4.9-13.9,14.3-14.3C39.5,21.3,40.7,21.3,50,21.3z M50,15
	c-9.5,0-10.7,0-14.4,0.2c-12.7,0.6-19.8,7.6-20.4,20.4C15,39.3,15,40.5,15,50s0,10.7,0.2,14.4c0.6,12.7,7.6,19.8,20.4,20.4
	C39.3,85,40.5,85,50,85s10.7,0,14.4-0.2c12.7-0.6,19.8-7.6,20.4-20.4C85,60.7,85,59.5,85,50s0-10.7-0.2-14.4
	c-0.6-12.7-7.6-19.8-20.4-20.4C60.7,15,59.5,15,50,15z M50,32c-9.9,0-18,8-18,18s8,18,18,18s18-8,18-18C68,40.1,59.9,32,50,32z
	 M50,61.7c-6.4,0-11.7-5.2-11.7-11.7c0-6.4,5.2-11.7,11.7-11.7S61.7,43.6,61.7,50C61.7,56.4,56.4,61.7,50,61.7z M68.7,27.1
	c-2.3,0-4.2,1.9-4.2,4.2c0,2.3,1.9,4.2,4.2,4.2c2.3,0,4.2-1.9,4.2-4.2C72.9,29,71,27.1,68.7,27.1z"/>
</svg>
