<?xml version="1.0" encoding="utf-8"?>
<!-- Generator: Adobe Illustrator 19.0.0, SVG Export Plug-In . SVG Version: 6.00 Build 0)  -->
<svg version="1.1" id="Layer_1" xmlns="http://www.w3.org/2000/svg" xmlns:xlink="http://www.w3.org/1999/xlink" x="0px" y="0px"
	 viewBox="0 0 28 28" style="enable-background:new 0 0 28 28;" xml:space="preserve">
<style type="text/css">
	.st0{fill:#2916BE;stroke:#FFFFFF;stroke-miterlimit:10;}
</style>
<path id="XMLID_1_" class="st0" d="M14,27L14,27c-2.8,0-5-2.2-5-5V6c0-2.7,2.2-5,5-5H14c2.7,0,5,2.2,5,5V22C19,24.8,16.8,27,14,27z"
	/>
<path id="XMLID_2_" class="st0" d="M14,9.3L14,9.3c-0.6,0-1-0.5-1-1V6.3c0-0.6,0.5-1,1-1h0c0.6,0,1,0.5,1,1v1.9
	C15,8.8,14.6,9.3,14,9.3z"/>
<polyline id="XMLID_3_" class="st0" points="16.6,16.5 14,18.5 11.4,16.5 "/>
<polyline id="XMLID_4_" class="st0" points="16.6,20.5 14,22.5 11.4,20.5 "/>
</svg>
