<?xml version="1.0" encoding="utf-8"?>
<!-- Generator: Adobe Illustrator 19.0.0, SVG Export Plug-In . SVG Version: 6.00 Build 0)  -->
<svg version="1.1" id="Layer_1" xmlns="http://www.w3.org/2000/svg" xmlns:xlink="http://www.w3.org/1999/xlink" x="0px" y="0px"
	 viewBox="0 0 200 250" style="enable-background:new 0 0 200 250;" xml:space="preserve">
<style type="text/css">
	.st0{fill:none;stroke:#000000;stroke-miterlimit:10;}
	.st1{stroke:#000000;stroke-miterlimit:10;}
	.st2{fill:none;stroke:#000000;stroke-width:3;stroke-miterlimit:10;}
	.st3{stroke:#000000;stroke-width:0.25;stroke-miterlimit:10;}
	.st4{fill:none;stroke:#000000;stroke-width:2;stroke-miterlimit:10;}
	.st5{stroke:#000000;stroke-width:0.75;stroke-miterlimit:10;}
</style>
<g id="XMLID_67_">
	<g id="XMLID_42_">
		<g id="XMLID_62_">
			<g id="XMLID_64_">
				<g id="XMLID_10_">
					<path id="XMLID_31_" d="M162,151l7.5,79l-0.8,0.3L29.5,230l6.8-79h0.3c21.7-4.3,35.5-14.3,40-31l0.6-2.1
						c4,1.4,8.2,2.1,12.7,2.1l0.3,0.5h20l-0.3-0.5c3.8,0,7.4-0.5,10.9-1.5l2.4,1.5c1.8,18.7,14.7,29,38.5,31H162z"/>
					<path id="XMLID_30_" d="M50.5,60.5H149v0c-2.5,0.5-4.5,4.7-4.5,9.7c0,5.4,2.2,9.8,5,9.8c0,18.3-12.2,33.7-28.9,38.5
						c-3.5,1-7.1,1.5-10.9,1.5l0.3,0.5H90l-0.3-0.5c-4.4,0-8.7-0.7-12.7-2.1C61.5,112.6,50.3,97.6,50.3,80h0.3v-0.8
						c1.8-1.5,3-4.9,3-8.9s-1.2-7.4-3-8.9V60.5z"/>
					<path id="XMLID_16_" d="M154.5,70.3c0,5.4-2.2,9.8-5,9.8V60.5C152.3,60.5,154.5,64.9,154.5,70.3z"/>
					<path id="XMLID_14_" d="M149.5,60.5V80c-2.8,0-5-4.4-5-9.8c0-5,2-9.2,4.5-9.7C149.2,60.5,149.3,60.5,149.5,60.5z"/>
					<path id="XMLID_13_" d="M50.5,61.3c1.8,1.5,3,4.9,3,8.9s-1.2,7.4-3,8.9V61.3z"/>
					<path id="XMLID_12_" d="M50.5,61.3v17.9c-0.6,0.5-1.3,0.8-2,0.8c-2.8,0-5-4.4-5-9.8s2.2-9.8,5-9.8
						C49.2,60.5,49.9,60.8,50.5,61.3z"/>
				</g>
				<g id="XMLID_11_">
					<line id="XMLID_29_" class="st0" x1="29.5" y1="230" x2="168.8" y2="230.3"/>
					<path id="XMLID_28_" class="st0" d="M36.5,151c21.7-4.3,35.5-14.3,40-31"/>
					<path id="XMLID_27_" class="st0" d="M161.5,151c-23.8-2-36.7-12.3-38.5-31"/>
					<line id="XMLID_26_" class="st0" x1="29.5" y1="230" x2="36.3" y2="151"/>
					<line id="XMLID_25_" class="st0" x1="169.5" y1="230" x2="162" y2="151"/>
					<path id="XMLID_24_" class="st0" d="M149.5,80c0,18.3-12.2,33.7-28.9,38.5c-3.5,1-7.1,1.5-10.9,1.5l0.3,0.5H90l-0.3-0.5
						c-4.4,0-8.7-0.7-12.7-2.1C61.5,112.6,50.3,97.6,50.3,80"/>
					<polyline id="XMLID_23_" class="st0" points="50.5,61.3 50.5,60.5 50.5,60 					"/>
					<line id="XMLID_22_" class="st0" x1="50.5" y1="80" x2="50.5" y2="79.2"/>
					<line id="XMLID_20_" class="st0" x1="149.5" y1="60.5" x2="149.5" y2="60"/>
					<polyline id="XMLID_19_" class="st0" points="50,60.5 50.5,60.5 149,60.5 149,60.5 					"/>
					<path id="XMLID_18_" class="st0" d="M50.5,61.3c-0.6-0.5-1.3-0.8-2-0.8c-2.8,0-5,4.4-5,9.8s2.2,9.8,5,9.8c0.7,0,1.4-0.3,2-0.8
						c1.8-1.5,3-4.9,3-8.9S52.3,62.8,50.5,61.3z"/>
					<path id="XMLID_17_" class="st0" d="M149,60.5c-2.5,0.5-4.5,4.7-4.5,9.7c0,5.4,2.2,9.8,5,9.8s5-4.4,5-9.8s-2.2-9.8-5-9.8
						C149.3,60.5,149.2,60.5,149,60.5z"/>
				</g>
			</g>
		</g>
		<ellipse id="XMLID_32_" class="st1" cx="79.4" cy="118.8" rx="2.9" ry="3.5"/>
		<ellipse id="XMLID_33_" class="st1" cx="120.3" cy="118.8" rx="2.8" ry="3.5"/>
		<g id="XMLID_34_">
			<g id="XMLID_92_">
				<path d="M161.4,154.9c0,0.1-0.2,0.7-0.1,0.7c0,0,0.5-0.3,0.5-0.4c0.2-0.2,0.4-0.5,0.6-0.8c0.3-0.7,0.4-1.4,0.4-2.1
					c0-0.8-0.7-1.5-1.5-1.5c-0.8,0-1.5,0.7-1.5,1.5c0,0.3,0,0.6-0.1,0.8c0,0,0.1-0.1,0,0c-0.1,0.1-0.5,0.4-0.4,0.3
					c-0.7,0.6-1,1.4-0.8,2.3c0.2,0.8,1.1,1.3,1.8,1C161.2,156.5,161.6,155.7,161.4,154.9L161.4,154.9z"/>
			</g>
		</g>
		<g id="XMLID_36_">
			<g id="XMLID_86_">
				<path d="M40.9,153.1c-0.4-0.5-0.8-0.9-1.3-1.2c-0.2-0.1-0.4-0.3-0.6-0.4c-0.2-0.1-0.3-0.2-0.5-0.2c-0.1,0-0.2-0.1-0.2-0.1
					c-0.1,0-0.1,0,0.1,0c0.2,0.3,0.5,0.6,0.7,0.9c0,0,0-0.1,0-0.1c0,0.3,0,0.5,0,0.8c0.3-0.9-0.1-1.8-0.9-2.4
					c-0.7-0.4-1.7-0.1-2.1,0.5c-0.4,0.7-0.2,1.6,0.5,2.1c-0.1-0.1-0.2-0.2-0.3-0.3c-0.1-0.3-0.1-0.5-0.2-0.8c0.1-0.2,0.1-0.2,0,0
					c0,0.1,0,0.3-0.1,0.4c0,0.3,0.1,0.6,0.2,0.9c0.3,0.5,0.8,0.7,1.2,0.9c0.1,0.1,0.6,0.3,0.7,0.4c0.2,0.1,0.5,0.5,0.7,0.7
					c0.5,0.6,1.6,0.5,2.1,0C41.5,154.6,41.4,153.7,40.9,153.1L40.9,153.1z"/>
			</g>
		</g>
		<g id="XMLID_37_">
			<g id="XMLID_80_">
				<path d="M163.5,226.4c0.2,0.9,0.6,1.8,1.2,2.6c0.6,0.8,1.3,1.8,2.4,1.8c0.5,0,1-0.3,1.3-0.7c0,0,0-0.1,0.1-0.1
					c-0.6,0.2-1.1,0.5-1.7,0.7c1,0.4,2.5,0.4,3.1-0.6c0.9-1.2-0.3-2.8-1.7-2.5c-1.9,0.5-1.1,3.4,0.8,2.9c0,0,0,0,0.1,0
					c-0.5-0.1-1-0.3-1.5-0.4c0,0,0,0,0.1,0.1c-0.1-0.2-0.3-0.4-0.4-0.7c0,0,0,0.1,0,0.1c0.1-0.5,0.3-1,0.4-1.5c0,0-0.1,0.1-0.1,0.1
					c0.2-0.1,0.4-0.3,0.7-0.4c-0.3,0.1-0.4,0-0.7,0c-0.6-0.2-1.4,0.1-1.7,0.7c0,0,0,0.1-0.1,0.1c0.4-0.2,0.9-0.5,1.3-0.7
					c0,0-0.1,0-0.1,0c0.4,0.1,0.7,0.3,1.1,0.4c-0.8-0.7-1.3-1.6-1.6-2.6C165.9,223.8,163,224.5,163.5,226.4L163.5,226.4z"/>
			</g>
		</g>
		<g id="XMLID_40_">
			<g id="XMLID_71_">
				<path d="M32.7,225.8c-1.1,0.5-2.1,1.2-3,2.1c-1,1,0,2.9,1.5,2.5c0.4-0.1,0.7-0.3,1-0.6c0.5-0.6,0.6-1.5,0-2.1
					c-0.5-0.5-1.6-0.6-2.1,0c0.1-0.1,0.2-0.1,0.3-0.2c0.5,0.8,1,1.7,1.5,2.5c0.7-0.7,1.4-1.2,2.4-1.6c0.7-0.3,0.9-1.4,0.5-2.1
					C34.3,225.6,33.4,225.5,32.7,225.8L32.7,225.8z"/>
			</g>
		</g>
	</g>
	<g id="XMLID_54_">
		<g id="XMLID_60_">
			<path d="M148,60.5c-0.4-7.8-5.3-12.4-12.9-12.5c-6.9-0.1-13.7,0-20.6,0c-17.1,0-34.2,0-51.4,0c-1.4,0-2.9-0.1-4.3,0
				c-6.2,0.6-9.6,6.1-9.9,12c-0.1,1.9,2.9,1.9,3,0c0.3-5.1,3.3-8.8,8.5-9c1.4-0.1,2.9,0,4.3,0c6.4,0,12.8,0,19.2,0
				c15.3,0,30.5,0,45.8,0c7.1,0,14.7-0.4,15.2,9.5C145.1,62.4,148.1,62.4,148,60.5L148,60.5z"/>
		</g>
	</g>
	<g id="XMLID_61_">
		<g id="XMLID_51_">
			<path d="M130,28c-4.9,0-9.9,0-14.8,0c-5.2,0-10.3-0.3-14.1,3.9c-3.5,3.9-3.1,8.6-3,13.5c0.1,5,0.2,10.1,0.4,15.1c0,1.9,3,1.9,3,0
				c-0.1-3.9-0.2-7.9-0.3-11.8c-0.1-4.5-1.3-11,2-14.7c3.6-4,9.5-3,14.3-3c4.2,0,8.3,0,12.5,0C131.9,31,131.9,28,130,28L130,28z"/>
		</g>
	</g>
	<path id="XMLID_68_" class="st2" d="M130,29.5c4.2-0.2,8.6-3.6,7.9-9.4"/>
	<rect id="XMLID_59_" x="136.6" y="20.1" class="st3" width="2" height="0.9"/>
	<g id="XMLID_57_">
		<ellipse id="XMLID_69_" class="st4" cx="137.7" cy="10.9" rx="4.7" ry="4.4"/>
		<rect id="XMLID_35_" x="130" y="10.4" class="st5" width="2" height="1"/>
		
			<rect id="XMLID_38_" x="136.7" y="16.7" transform="matrix(3.269762e-003 1 -1 3.269762e-003 154.4227 -120.5094)" class="st5" width="1.9" height="1.1"/>
		
			<rect id="XMLID_39_" x="136.7" y="3.5" transform="matrix(9.061103e-003 1 -1 9.061103e-003 140.4903 -133.6202)" class="st5" width="1.9" height="1.1"/>
		<rect id="XMLID_41_" x="143.1" y="10.4" class="st5" width="2" height="1"/>
		<polygon id="XMLID_43_" class="st5" points="143.4,5.7 142,7 141.3,6.3 142.7,5 		"/>
		<polygon id="XMLID_44_" class="st5" points="133.1,7.6 131.7,6.4 132.4,5.6 133.8,6.9 		"/>
		<polygon id="XMLID_46_" class="st5" points="142.4,16.3 140.9,15.1 141.6,14.3 143.1,15.5 		"/>
		<polygon id="XMLID_48_" class="st5" points="134,15 132.6,16.3 131.9,15.6 133.3,14.3 		"/>
	</g>
</g>
<g id="XMLID_78_">
	<g id="XMLID_102_">
		<path id="XMLID_77_" d="M73.3,15.3c0.5,5.6,4.7,7.1,9.8,7.2c0.8,0,1.5-0.7,1.5-1.5c0,0,0,0,0-0.1c-0.5,0.5-1,1-1.5,1.5
			c3.6,0,7.3,0,10.9,0c-0.5-0.5-1-1-1.5-1.5c0,0,0,0,0,0.1c0,0.9,0.7,1.4,1.5,1.5c5.7,0.8,3.9,14.2,4,17.7c0,1.9,3,1.9,3,0
			c-0.1-6.7,2.2-19.4-7-20.7c0.5,0.5,1,1,1.5,1.5c0,0,0,0,0-0.1c0-0.8-0.7-1.5-1.5-1.5c-3.6,0-7.3,0-10.9,0c-0.8,0-1.5,0.7-1.5,1.5
			c0,0,0,0,0,0.1c0.5-0.5,1-1,1.5-1.5c-3-0.1-6.4-0.2-6.8-4.2C76.1,13.4,73.1,13.4,73.3,15.3L73.3,15.3z"/>
	</g>
</g>
<g id="XMLID_84_">
	<g id="XMLID_123_">
		<path id="XMLID_127_" d="M66.3,9.6c-1.6-0.9-3.1-1.8-4.7-2.7c0,0.4,0,0.9,0,1.3c1.7-0.8,3.3-1.5,5-2.3c0.9-0.4,0.1-1.7-0.8-1.3
			c-1.7,0.8-3.3,1.5-5,2.3c-0.5,0.2-0.5,1,0,1.3c1.6,0.9,3.1,1.8,4.7,2.7C66.4,11.4,67.1,10.1,66.3,9.6L66.3,9.6z"/>
	</g>
</g>
<g id="XMLID_85_">
	<g id="XMLID_114_">
		<path id="XMLID_121_" d="M71.9,5.7c1.6,0.8,3.2,1.6,4.7,2.4c0-0.4,0-0.9,0-1.3c-1.6,0.9-3.2,1.7-4.8,2.6c-0.8,0.5-0.1,1.8,0.8,1.3
			c1.6-0.9,3.2-1.7,4.8-2.6c0.5-0.3,0.5-1,0-1.3c-1.6-0.8-3.2-1.6-4.7-2.4C71.8,4,71,5.3,71.9,5.7L71.9,5.7z"/>
	</g>
</g>
<g id="XMLID_90_">
	<g id="XMLID_113_">
		<path id="XMLID_122_" d="M69.8,2.3c-0.8,3.3-1.6,6.7-2.4,10c-0.2,0.9,1.2,1.3,1.4,0.4c0.8-3.3,1.6-6.7,2.4-10
			C71.4,1.8,70,1.4,69.8,2.3L69.8,2.3z"/>
	</g>
</g>
</svg>
